<?xml version="1.0" encoding="utf-8"?>
<!-- Generator: Adobe Illustrator 25.2.1, SVG Export Plug-In . SVG Version: 6.00 Build 0)  -->
<svg version="1.1" id="Layer_2" xmlns="http://www.w3.org/2000/svg" xmlns:xlink="http://www.w3.org/1999/xlink" x="0px" y="0px"
	 viewBox="0 0 612 555.9" style="enable-background:new 0 0 612 555.9;" xml:space="preserve">
<style type="text/css">
	.st0{stroke:#FFFFFF;stroke-miterlimit:10;}
</style>
<path class="st0" d="M314.3,274.3c-8,1.7-19.3,9.5-22.1,11.3c-16.3,10.6-32.6,20.9-48.3,32.4c-33,24.2-72.3,53.9-75.7,96.1
	c-1.2,15.3,2.9,32.1,12.1,45.3c7.6,11,19.5,19.3,34.3,22.5c10.7,2.3,21.4,3,32.5,2.4c18.4-1,37.2-6.8,46.1-21.5
	c6.3-10.4,4.1-22.7-3.8-32c-4-4.7-9.4-8.7-15.5-11.4c-12.2-5.4-26.8-4-35.2-14.8c-11.7-14.9-4.4-36.2,4.3-50.7
	c10.7-17.8,28.4-30.4,45.2-42.9c1.6-1.2,3.2-2.4,4.9-3.6c4.3-3.2,8.3-6.6,12.6-9.9c5.1-3.9,19.5-12.8,16.5-20.6
	C320.9,274,317.9,273.5,314.3,274.3z"/>
<path d="M228.9,175.3c-12.4,9.9-24.3,22.8-27.4,38.2c-3.3,16.4,6.4,36.9,23.7,43.2c14.4,5.3,29.4-3.7,39.8-12.3
	c7.8-6.4,14.2-14.6,20.4-22.5c5.8-7.4,12-17.4,21.5-21.1c9-3.5,16.8,0.8,19.8,9c1.7,4.6,1.9,9.6,2.5,14.3
	c3.5,24.1,4.6,48.7,4.3,72.9c-0.2,14.7-1,29.4-3,44c-2.9,21.9-8.6,43.1-7.7,65.3c0.8,20.5,7.6,40.8,19.4,58.1
	c9.7,14.2,24.8,25.4,42,30.7c21.8,6.6,49.6,3.4,57.2-19.8c5.2-15.9,2.9-35.2-11.6-46.2c-9.1-6.9-21-7-31.1-12.1
	c0,0-11-6.1-19.6-14.9c-7.7-8-17.4-23.3-17.9-59.8c-0.4-26.2,4.9-51.5,10.5-76.9c5-22.7,10-47,4.5-70c-6.9-28.6-28.8-53.4-59.9-53
	C285.3,142.6,253,156,228.9,175.3z"/>
<path d="M350.9,134.8c-4.6-3.8-8-8.5-11.5-13.1c-6.9-9-13.2-18.9-15.9-29.8c-3.3-13.3,0.8-28.5,16.2-33.1c6-1.8,13.2-1.1,17.6,3.4
	c11.5,11.8,3.2,33.9-0.1,47.2c-1,4.1-2,8.1-3,12.2C353.6,123.1,349.8,133.9,350.9,134.8z"/>
<path d="M377.6,165.1c2-0.8,4.3-1.5,6.3-2.3c18.4-7.2,45.5-11.5,63.4-0.6c14.6,8.9,15.2,33.4-2.8,39.8c-6.2,2.2-13.1,0.6-18.9-1.9
	c-10.3-4.5-19.3-11.5-27.8-18.4c-3.4-2.8-6.7-5.9-10.4-8.4C386.6,172.6,377.6,165.1,377.6,165.1z"/>
<path d="M361.1,139.9c2.7,0.4,5.6,0.5,8.4,0.8c24.5,2.9,58.3-0.4,75.7-19c14.2-15.2,6.1-44.5-17.6-46.5c-8.2-0.7-15.8,3.3-21.8,8.1
	c-10.6,8.6-18.9,19.7-26.5,30.6c-3.1,4.4-5.9,9.1-9.3,13.2C369.1,128.1,361.1,139.9,361.1,139.9z"/>
</svg>
