<svg xmlns="http://www.w3.org/2000/svg" xmlns:xlink="http://www.w3.org/1999/xlink" width="511" height="736" viewBox="0 0 511 736">
  <defs>
    <clipPath id="clip-Web_1920_1">
      <rect width="511" height="736"/>
    </clipPath>
  </defs>
  <g id="Web_1920_1" data-name="Web 1920 – 1" clip-path="url(#clip-Web_1920_1)">
    <g id="favicon_mark_2" data-name="favicon mark 2" transform="translate(-57.567 89.999)">
      <path id="Path_1" data-name="Path 1" d="M314.3,274.3c-8,1.7-19.3,9.5-22.1,11.3-16.3,10.6-32.6,20.9-48.3,32.4-33,24.2-72.3,53.9-75.7,96.1a71.181,71.181,0,0,0,12.1,45.3,55.48,55.48,0,0,0,34.3,22.5,121.714,121.714,0,0,0,32.5,2.4c18.4-1,37.2-6.8,46.1-21.5,6.3-10.4,4.1-22.7-3.8-32a43.736,43.736,0,0,0-15.5-11.4c-12.2-5.4-26.8-4-35.2-14.8-11.7-14.9-4.4-36.2,4.3-50.7,10.7-17.8,28.4-30.4,45.2-42.9,1.6-1.2,3.2-2.4,4.9-3.6,4.3-3.2,8.3-6.6,12.6-9.9,5.1-3.9,19.5-12.8,16.5-20.6C320.9,274,317.9,273.5,314.3,274.3Z" fill="#fff" stroke="#fff" stroke-miterlimit="10" stroke-width="1"/>
      <path id="Path_2" data-name="Path 2" d="M228.9,175.3c-12.4,9.9-24.3,22.8-27.4,38.2-3.3,16.4,6.4,36.9,23.7,43.2,14.4,5.3,29.4-3.7,39.8-12.3,7.8-6.4,14.2-14.6,20.4-22.5,5.8-7.4,12-17.4,21.5-21.1,9-3.5,16.8.8,19.8,9,1.7,4.6,1.9,9.6,2.5,14.3,3.5,24.1,4.6,48.7,4.3,72.9a360,360,0,0,1-3,44c-2.9,21.9-8.6,43.1-7.7,65.3a111.4,111.4,0,0,0,19.4,58.1,79.866,79.866,0,0,0,42,30.7c21.8,6.6,49.6,3.4,57.2-19.8,5.2-15.9,2.9-35.2-11.6-46.2-9.1-6.9-21-7-31.1-12.1a97.216,97.216,0,0,1-19.6-14.9c-7.7-8-17.4-23.3-17.9-59.8-.4-26.2,4.9-51.5,10.5-76.9,5-22.7,10-47,4.5-70-6.9-28.6-28.8-53.4-59.9-53C285.3,142.6,253,156,228.9,175.3Z" fill="#fff"/>
      <path id="Path_3" data-name="Path 3" d="M350.9,134.8c-4.6-3.8-8-8.5-11.5-13.1-6.9-9-13.2-18.9-15.9-29.8-3.3-13.3.8-28.5,16.2-33.1,6-1.8,13.2-1.1,17.6,3.4,11.5,11.8,3.2,33.9-.1,47.2-1,4.1-2,8.1-3,12.2C353.6,123.1,349.8,133.9,350.9,134.8Z" fill="#fff"/>
      <path id="Path_4" data-name="Path 4" d="M377.6,165.1c2-.8,4.3-1.5,6.3-2.3,18.4-7.2,45.5-11.5,63.4-.6,14.6,8.9,15.2,33.4-2.8,39.8-6.2,2.2-13.1.6-18.9-1.9-10.3-4.5-19.3-11.5-27.8-18.4-3.4-2.8-6.7-5.9-10.4-8.4C386.6,172.6,377.6,165.1,377.6,165.1Z" fill="#fff"/>
      <path id="Path_5" data-name="Path 5" d="M361.1,139.9c2.7.4,5.6.5,8.4.8,24.5,2.9,58.3-.4,75.7-19,14.2-15.2,6.1-44.5-17.6-46.5-8.2-.7-15.8,3.3-21.8,8.1-10.6,8.6-18.9,19.7-26.5,30.6-3.1,4.4-5.9,9.1-9.3,13.2C369.1,128.1,361.1,139.9,361.1,139.9Z" fill="#fff"/>
    </g>
  </g>
</svg>
